<svg id="Layer_1" data-name="Layer 1" xmlns="http://www.w3.org/2000/svg" viewBox="0 0 448 488.13"><defs><style>.cls-1{fill:#fff;fill-rule:evenodd;}</style></defs><polygon class="cls-1" points="224 0 0 129.33 0 226.54 110.14 290.13 337.86 158.66 371.25 177.93 143.53 309.41 224 355.87 448 226.54 448 129.33 337.86 65.74 110.14 197.21 76.75 177.93 304.47 46.46 224 0"/><path class="cls-1" d="M256,279l-73.26,42.3L256,363.64Zm0-263L35.6,143.34v93L142.14,297.9,256,232.16V147.57L142.14,213.3l-40.6-23.44L256,100.69Z" transform="translate(-32 -11.93)"/><polygon class="cls-1" points="448 265.89 224 395.22 0 265.89 0 358.81 224 488.13 448 358.81 448 265.89"/><polygon class="cls-1" points="224 399.38 3.6 272.13 3.6 356.73 224 483.97 224 399.38"/></svg>